<?xml version="1.0" encoding="UTF-8" standalone="no"?>
<svg
   xmlns:dc="http://purl.org/dc/elements/1.1/"
   xmlns:cc="http://creativecommons.org/ns#"
   xmlns:rdf="http://www.w3.org/1999/02/22-rdf-syntax-ns#"
   xmlns:svg="http://www.w3.org/2000/svg"
   xmlns="http://www.w3.org/2000/svg"
   xmlns:sodipodi="http://sodipodi.sourceforge.net/DTD/sodipodi-0.dtd"
   xmlns:inkscape="http://www.inkscape.org/namespaces/inkscape"
   id="Layer_1"
   style="enable-background:new 0 0 64 64;"
   version="1.1"
   viewBox="0 0 64 64"
   xml:space="preserve"
   sodipodi:docname="Logo.svg"
   inkscape:version="0.92.4 5da689c313, 2019-01-14"><metadata
     id="metadata6639"><rdf:RDF><cc:Work
         rdf:about=""><dc:format>image/svg+xml</dc:format><dc:type
           rdf:resource="http://purl.org/dc/dcmitype/StillImage" /><dc:title></dc:title></cc:Work></rdf:RDF></metadata><defs
     id="defs6637" /><sodipodi:namedview
     pagecolor="#ffffff"
     bordercolor="#666666"
     borderopacity="1"
     objecttolerance="10"
     gridtolerance="10"
     guidetolerance="10"
     inkscape:pageopacity="0"
     inkscape:pageshadow="2"
     inkscape:window-width="1280"
     inkscape:window-height="735"
     id="namedview6635"
     showgrid="false"
     showguides="false"
     inkscape:zoom="7.921875"
     inkscape:cx="22.545028"
     inkscape:cy="31.699889"
     inkscape:window-x="0"
     inkscape:window-y="0"
     inkscape:window-maximized="1"
     inkscape:current-layer="Layer_1" /><style
     type="text/css"
     id="style6540">
	.st0{fill:#62BEE7;}
	.st1{fill:#474E5E;}
	.st2{fill:#F3EEE4;}
	.st3{fill:#FFFFFF;}
	.st4{fill:#E8DCCA;}
	.st5{opacity:0.1;fill:#231F20;}
	.st6{fill:#506268;}
	.st7{fill:#EB5151;}
	.st8{fill:#C64444;}
	.st9{fill:#9CCB5B;}
	.st10{fill:#404A4C;}
	.st11{fill:#676767;}
	.st12{fill:#E0E1E5;}
	.st13{fill:#9D9EA0;}
	.st14{fill:#B3B4B7;}
	.st15{opacity:0.1;}
	.st16{fill:#231F20;}
	.st17{fill:#FACC20;}
	.st18{fill:#FDEF34;}
	.st19{fill:#F7A90B;}
	.st20{fill:#20B8EA;}
	.st21{fill:#00A8EA;}
	.st22{fill:#33D3F4;}
	.st23{opacity:0.25;fill:#FFFFFF;}
	.st24{fill:#CACBCE;}
	.st25{fill:#2E3545;}
	.st26{fill:#8DAF4A;}
	.st27{fill:#F9C2AF;}
	.st28{fill:#AFDDF4;}
	.st29{fill:#677177;}
	.st30{fill:#FFEDB3;}
	.st31{fill:#695652;}
	.st32{fill:#30A7BF;}
	.st33{fill:#4D5556;}
	.st34{opacity:0.35;}
	.st35{fill:#FFCB04;}
	.st36{fill:#99E9FA;}
	.st37{opacity:0.2;}
	.st38{opacity:3.000000e-02;}
	.st39{fill:#9ECA5B;}
	.st40{fill:#98BA56;}
	.st41{fill:#40EEFF;}
	.st42{fill:#FF6A52;}
	.st43{opacity:0.1;fill:#FFFFFF;}
	.st44{opacity:0.4;}
	.st45{fill:#57606D;}
	.st46{fill:#BACA5B;}
	.st47{opacity:0.25;}
	.st48{opacity:5.000000e-02;fill:#231F20;}
	.st49{opacity:0.2;fill:#FFFFFF;}
	.st50{opacity:0.3;}
	.st51{fill:#FFD82F;}
	.st52{fill:#F4C121;}
	.st53{fill:#EF9D0A;}
	.st54{fill:#F9E532;}
	.st55{fill:#F4C01E;}
	.st56{fill:#FFE14D;}
	.st57{fill:#B7C156;}
	.st58{fill:#DBA92C;}
	.st59{fill:#363D4D;}
	.st60{fill:#3F4656;}
	.st61{fill:#463E33;}
	.st62{fill:none;}
	.st63{opacity:4.000000e-02;}
	.st64{fill:#4DB6AC;}
	.st65{fill:#CADE49;}
	.st66{fill:#9FD343;}
	.st67{fill:#AAD643;}
	.st68{fill:#82C736;}
	.st69{opacity:0.3;fill:#FFFFFF;}
	.st70{fill:#FFD640;}
	.st71{opacity:0.5;}
	.st72{opacity:0.6;}
</style><circle
     style="fill:#563d7c;fill-opacity:1;stroke-width:0.84615386"
     id="circle6542"
     r="27.076923"
     cy="32"
     cx="32"
     class="st7" /><g
     id="g7505"><circle
       class="st19"
       cx="38.544849"
       cy="32.888115"
       r="2.4174697"
       id="circle6544"
       style="fill:#f7a90b;stroke-width:0.96698785" /><polygon
       transform="matrix(0.96698783,0,0,0.96698783,1.1224201,3.9751779)"
       style="fill:#ffffff"
       id="polygon6548"
       points="31.3,39.1 32.7,39.1 32.7,36.9 37.4,32.2 36.4,31.2 32.7,34.9 32.7,20.7 31.3,20.7 31.3,31.5 27.6,27.8 26.6,28.9 31.3,33.5 "
       class="st3" /><circle
       class="st21"
       cx="25.587212"
       cy="29.697056"
       r="2.4174697"
       id="circle6550"
       style="fill:#00a8ea;stroke-width:0.96698785" /><rect
       class="st65"
       height="14.31142"
       width="24.077997"
       x="20.075382"
       y="11.711081"
       id="rect6562"
       style="fill:#cade49;stroke-width:0.96698785" /><rect
       class="st67"
       height="9.7665777"
       width="19.629852"
       x="22.299454"
       y="13.935154"
       id="rect6568"
       style="fill:#aad643;stroke-width:0.96698785" /><ellipse
       style="fill:#82c736;stroke-width:0.96698785"
       id="ellipse6574"
       ry="3.7712529"
       rx="2.804265"
       cy="18.866791"
       cx="32.162731"
       class="st68" /><path
       class="st68"
       d="m 25.490514,13.935152 c 0,1.740579 -1.353783,3.094362 -3.094361,3.094362 v 0 -3.094362 z"
       id="path6578"
       inkscape:connector-curvature="0"
       style="fill:#82c736;stroke-width:0.96698785" /><path
       class="st68"
       d="m 41.929308,13.935152 v 3.094362 c -1.740579,0 -3.094362,-1.353783 -3.094362,-3.094362 z"
       id="path6584"
       inkscape:connector-curvature="0"
       style="fill:#82c736;stroke-width:0.96698785" /><path
       class="st68"
       d="m 25.490514,23.798429 h -3.094361 v -3.094362 0 c 1.643879,-0.0967 3.094361,1.353783 3.094361,3.094362 z"
       id="path6590"
       inkscape:connector-curvature="0"
       style="fill:#82c736;stroke-width:0.96698785" /><path
       class="st68"
       d="m 41.929308,20.607369 v 3.094361 h -3.094362 c 0,-1.64388 1.353783,-3.094361 3.094362,-3.094361 z"
       id="path6596"
       inkscape:connector-curvature="0"
       style="fill:#82c736;stroke-width:0.96698785" /><path
       style="fill:#ffffff;stroke-width:0.96698785"
       inkscape:connector-curvature="0"
       id="path6602"
       d="m 33.613212,19.253586 c -0.0967,-0.193398 -0.290097,-0.580193 -1.257084,-0.77359 v -1.257085 c 0.290096,0.0967 0.386795,0.290097 0.483494,0.483494 0.0967,0.193398 0.193398,0.290096 0.386795,0.290096 0.0967,0 0.77359,-0.193397 0.0967,-0.966987 -0.0967,-0.0967 -0.290095,-0.386796 -0.966987,-0.386796 v -0.483493 h -0.386795 v 0.483493 c -1.160386,0.0967 -1.257085,0.87029 -1.257085,1.257085 0,0.966988 0.966989,1.160385 1.257085,1.257084 v 1.353783 c -0.483494,-0.0967 -0.580193,-0.580193 -0.676892,-0.77359 -0.0967,-0.290096 -0.193397,-0.290096 -0.290096,-0.290096 -0.290097,0 -0.386795,0.290096 -0.386795,0.386795 0,0.0967 0.0967,0.676891 0.77359,1.063687 0.193398,0.0967 0.386795,0.0967 0.580193,0.193397 v 0.483494 h 0.386795 v -0.483494 c 0.290096,0 0.483494,-0.0967 0.77359,-0.193397 0.483494,-0.386796 0.676892,-1.063687 0.483494,-1.64388 z m -1.643879,-0.966988 c -0.290096,-0.0967 -0.483494,-0.193397 -0.483494,-0.580193 0,-0.193397 0.0967,-0.483494 0.483494,-0.580192 z m 0.386795,2.224072 v -1.257084 c 0.580193,0.193398 0.580193,0.483494 0.580193,0.676891 0,0.0967 0,0.483494 -0.580193,0.580193 z"
       class="st3" /><circle
       style="fill:#82c736;stroke-width:0.96698785"
       id="circle6610"
       r="0.67689151"
       cy="18.866791"
       cx="27.521189"
       class="st68" /><circle
       style="fill:#82c736;stroke-width:0.96698785"
       id="circle6612"
       r="0.67689151"
       cy="18.866791"
       cx="36.707573"
       class="st68" /><g
       transform="matrix(0.97900144,0,0,0.97900144,0.68065788,-1.9692662)"
       id="g6792"><path
         style="fill:#98ba56;stroke-width:1.01644635"
         inkscape:connector-curvature="0"
         id="path6554"
         d="M 38.096938,56 H 26.732143 C 24.5625,56 22.59949,54.5 22.186224,52.4 L 19.5,42.6 h 25.829081 l -2.686224,9.8 C 42.229591,54.5 40.266581,56 38.096938,56 Z"
         class="st40" /><path
         class="st69"
         d="m 24.3,52.4 -2.6,-9.8 h -2.2 l 2.6,9.8 c 0.4,2.1 2.2,3.6 4.4,3.6 h 2.2 c -2.2,0 -4,-1.5 -4.4,-3.6 z"
         id="path6618"
         inkscape:connector-curvature="0"
         style="opacity:0.3;fill:#ffffff" /><path
         class="st5"
         d="m 42.4,42.7 -2.6,9.8 c -0.4,2.1 -2.2,3.6 -4.4,3.6 h 2.2 c 2.1,0 4,-1.5 4.4,-3.6 l 2.6,-9.8 z"
         id="path6620"
         inkscape:connector-curvature="0"
         style="opacity:0.1;fill:#231f20" /></g><circle
       class="st3"
       cx="37.867958"
       cy="32.211224"
       r="1.4504818"
       id="circle6622"
       style="fill:#ffffff;stroke-width:0.96698785" /><circle
       class="st3"
       cx="24.910322"
       cy="29.020163"
       r="1.4504818"
       id="circle6626"
       style="fill:#ffffff;stroke-width:0.96698785" /></g><text
     xml:space="preserve"
     style="font-style:normal;font-weight:normal;font-size:49.20112991px;line-height:1.25;font-family:sans-serif;letter-spacing:0px;word-spacing:0px;fill:#000000;fill-opacity:1;stroke:none;stroke-width:1.23002827"
     id="text7468"
     x="-16.839851"
     transform="rotate(-0.52237438)"
     y="52.81049"><tspan
       style="font-size:4px"
       id="tspan7507"> </tspan></text>
<text
     xml:space="preserve"
     style="font-style:normal;font-weight:normal;font-size:40px;line-height:1.25;font-family:sans-serif;letter-spacing:0px;word-spacing:0px;fill:#000000;fill-opacity:1;stroke:none"
     x="349.28815"
     y="16.949154"
     id="text7472"><tspan
       sodipodi:role="line"
       id="tspan7470"
       x="349.28815"
       y="52.339779"></tspan></text>
</svg>